<svg xmlns="http://www.w3.org/2000/svg" width="40" height="40" viewBox="0 0 40 40">
  <g id="icon_Overdue" data-name="icon+Overdue" transform="translate(-1611 -253)">
    <rect id="Rectangle_240" data-name="Rectangle 240" width="40" height="40" transform="translate(1611 253)" fill="none"/>
    <g id="Group_341" data-name="Group 341" transform="translate(0.69 5.506)">
      <path id="Path_86" data-name="Path 86" d="M1639.182,280.591a.451.451,0,0,1-.462.436h-17.095a.45.45,0,0,1-.462-.436v-.513a.451.451,0,0,1,.462-.437h17.095a.452.452,0,0,1,.462.437Z" fill="#ffd100"/>
      <path id="Path_87" data-name="Path 87" d="M1638.061,257.036a.691.691,0,0,0-.56-.284h-14.656a.692.692,0,0,0-.66.9c.034.109.9,2.714,5.195,6.011l.032.023c.02.014,1.906,1.322,2.065,2.9,0,.1,0,.211,0,.211v8.9a.452.452,0,0,0,.437.462h.513a.452.452,0,0,0,.437-.462v-8.9s0-.146,0-.211c.159-1.583,2.045-2.891,2.064-2.9l.033-.024c4.294-3.3,5.161-5.9,5.2-6.011a.693.693,0,0,0-.1-.62m-5.925,5.52a1.964,1.964,0,1,1-3.926,0,17.143,17.143,0,0,1-4.236-4.418h12.407a17.028,17.028,0,0,1-4.245,4.418" fill="#ffd100"/>
      <path id="Path_88" data-name="Path 88" d="M1632.948,267.157c0-.629.385-.968,1.5-1.859a23.912,23.912,0,0,0,4.192-4.14,16.058,16.058,0,0,0,3.336-9.278h1.621a.451.451,0,0,0,.462-.436v-.513a.451.451,0,0,0-.462-.437h-26.822a.451.451,0,0,0-.462.437v.513a.451.451,0,0,0,.462.436h1.622a16.113,16.113,0,0,0,3.32,9.276,23.9,23.9,0,0,0,4.172,4.14c1.107.89,1.489,1.23,1.489,1.86s-.382.97-1.489,1.86a23.9,23.9,0,0,0-4.172,4.14,16.111,16.111,0,0,0-3.319,9.243h-1.623a.451.451,0,0,0-.462.436v.514a.451.451,0,0,0,.462.436h26.793a.451.451,0,0,0,.462-.436v-.514a.451.451,0,0,0-.462-.436h-1.593a16.067,16.067,0,0,0-3.335-9.243,23.987,23.987,0,0,0-4.192-4.14c-1.112-.89-1.5-1.23-1.5-1.859h0Zm.63,2.942a22.7,22.7,0,0,1,3.973,3.919,14.843,14.843,0,0,1,3.029,8.381h-20.793a14.884,14.884,0,0,1,3.015-8.383,22.637,22.637,0,0,1,3.953-3.919c1.165-.938,2.007-1.615,2.007-2.941s-.842-2-2.007-2.941a22.636,22.636,0,0,1-3.953-3.919,14.9,14.9,0,0,1-3.017-8.416h20.8a14.849,14.849,0,0,1-3.031,8.416,22.747,22.747,0,0,1-3.973,3.92c-1.163.931-2.005,1.605-2.016,2.915v.052c.01,1.31.853,1.985,2.016,2.916" fill="#009ee2"/>
    </g>
  </g>
</svg>
