<svg xmlns="http://www.w3.org/2000/svg" width="40" height="40" viewBox="0 0 40 40">
  <g id="icon_Spares_Availability" transform="translate(-983 -251)">
    <rect id="Rectangle_236" data-name="Rectangle 236" width="40" height="40" transform="translate(983 251)" fill="none"/>
    <g id="Group_326" data-name="Group 326" transform="translate(-10.068 -11.883)">
      <g id="Group_327" data-name="Group 327" transform="translate(1)">
        <path id="Path_97" data-name="Path 97" d="M1014.76,274.645h5.963a1.114,1.114,0,0,0,1.113-1.112v-1.87a1.114,1.114,0,0,0-1.113-1.112h-5.963a1.113,1.113,0,0,0-1.112,1.112v1.87a1.113,1.113,0,0,0,1.112,1.112m.252-2.73h5.458v1.365h-5.458Z" transform="translate(-5.356 -3.425)" fill="#009fdf"/>
        <path id="Path_98" data-name="Path 98" d="M1025.439,267.822h-16.865a1.069,1.069,0,0,0-1.068,1.068v16.864a1.069,1.069,0,0,0,1.068,1.068h16.865a1.069,1.069,0,0,0,1.068-1.068V268.89a1.069,1.069,0,0,0-1.068-1.068m-.243,17.69h-16.38v-16.38h16.38Z" transform="translate(-4.939 -4.939)" fill="#009fdf"/>
        <path id="Path_105" data-name="Path 105" d="M1024.23,280.785h-4.108a.391.391,0,0,0-.334.43v.505a.392.392,0,0,0,.334.43h4.108a.391.391,0,0,0,.334-.43v-.505a.39.39,0,0,0-.334-.43" transform="translate(-5.726 -6.449)" fill="#ffcd00"/>
      </g>
      <g id="Group_329" data-name="Group 329" transform="translate(-9.5 20)">
        <path id="Path_97-2" data-name="Path 97" d="M1014.76,274.645h5.963a1.114,1.114,0,0,0,1.113-1.112v-1.87a1.114,1.114,0,0,0-1.113-1.112h-5.963a1.113,1.113,0,0,0-1.112,1.112v1.87a1.113,1.113,0,0,0,1.112,1.112m.252-2.73h5.458v1.365h-5.458Z" transform="translate(-5.356 -3.425)" fill="#009fdf"/>
        <path id="Path_98-2" data-name="Path 98" d="M1025.439,267.822h-16.865a1.069,1.069,0,0,0-1.068,1.068v16.864a1.069,1.069,0,0,0,1.068,1.068h16.865a1.069,1.069,0,0,0,1.068-1.068V268.89a1.069,1.069,0,0,0-1.068-1.068m-.243,17.69h-16.38v-16.38h16.38Z" transform="translate(-4.939 -4.939)" fill="#009fdf"/>
        <path id="Path_105-2" data-name="Path 105" d="M1024.23,280.785h-4.108a.391.391,0,0,0-.334.43v.505a.392.392,0,0,0,.334.43h4.108a.391.391,0,0,0,.334-.43v-.505a.39.39,0,0,0-.334-.43" transform="translate(-5.726 -6.449)" fill="#ffcd00"/>
      </g>
      <g id="Group_330" data-name="Group 330" transform="translate(11 20)">
        <path id="Path_97-3" data-name="Path 97" d="M1014.76,274.645h5.963a1.114,1.114,0,0,0,1.113-1.112v-1.87a1.114,1.114,0,0,0-1.113-1.112h-5.963a1.113,1.113,0,0,0-1.112,1.112v1.87a1.113,1.113,0,0,0,1.112,1.112m.252-2.73h5.458v1.365h-5.458Z" transform="translate(-5.356 -3.425)" fill="#009fdf"/>
        <path id="Path_98-3" data-name="Path 98" d="M1025.439,267.822h-16.865a1.069,1.069,0,0,0-1.068,1.068v16.864a1.069,1.069,0,0,0,1.068,1.068h16.865a1.069,1.069,0,0,0,1.068-1.068V268.89a1.069,1.069,0,0,0-1.068-1.068m-.243,17.69h-16.38v-16.38h16.38Z" transform="translate(-4.939 -4.939)" fill="#009fdf"/>
        <path id="Path_105-3" data-name="Path 105" d="M1024.23,280.785h-4.108a.391.391,0,0,0-.334.43v.505a.392.392,0,0,0,.334.43h4.108a.391.391,0,0,0,.334-.43v-.505a.39.39,0,0,0-.334-.43" transform="translate(-5.726 -6.449)" fill="#ffcd00"/>
      </g>
      <path id="Path_167" data-name="Path 167" d="M1024.23,283.515h-4.108a.391.391,0,0,0-.334.43v.505a.392.392,0,0,0,.334.43h4.108a.391.391,0,0,0,.334-.43v-.505a.39.39,0,0,0-.334-.43" transform="translate(-4.939 -5.939)" fill="#ffcd00"/>
    </g>
  </g>
</svg>
