<svg xmlns="http://www.w3.org/2000/svg" width="24" height="24" viewBox="0 0 24 24">
  <g id="icon_Settings" transform="translate(-1260 -57)">
    <rect id="Rectangle_238" data-name="Rectangle 238" width="24" height="24" transform="translate(1260 57)" fill="none"/>
    <path id="Path_168" data-name="Path 168" d="M1368.848,69.7a4.729,4.729,0,0,0-.211-1.286.884.884,0,0,1,.4-1l.951-.574a.879.879,0,0,0,.3-1.228l-1.154-1.82a.929.929,0,0,0-1.26-.29l-.923.557a.912.912,0,0,1-1-.026,7.325,7.325,0,0,0-1.929-1,.878.878,0,0,1-.581-.83V61.095a.9.9,0,0,0-.915-.893h-2.195a.9.9,0,0,0-.916.893v1.116a.878.878,0,0,1-.581.83,7.325,7.325,0,0,0-1.929,1,.912.912,0,0,1-1,.026l-.923-.557a.93.93,0,0,0-1.261.29l-1.154,1.82a.879.879,0,0,0,.3,1.228l.951.574a.884.884,0,0,1,.4,1,4.037,4.037,0,0,0,0,2.573.884.884,0,0,1-.4,1l-.951.574a.879.879,0,0,0-.3,1.228l1.154,1.82a.929.929,0,0,0,1.261.289l.923-.556a.911.911,0,0,1,1,.026,7.341,7.341,0,0,0,1.93,1,.879.879,0,0,1,.581.83v1.115a.9.9,0,0,0,.916.893h2.195a.9.9,0,0,0,.915-.893V77.194a.878.878,0,0,1,.581-.83,7.344,7.344,0,0,0,1.93-1,.911.911,0,0,1,1-.026l.923.556a.928.928,0,0,0,1.26-.289l1.154-1.82a.879.879,0,0,0-.3-1.228l-.951-.574a.882.882,0,0,1-.4-1A4.724,4.724,0,0,0,1368.848,69.7Zm-6.863,3.423a3.47,3.47,0,1,1,2.947-2.876A3.513,3.513,0,0,1,1361.986,73.125Z" transform="translate(-88.922 -0.702)" fill="none" stroke="#939598" stroke-width="1.7"/>
  </g>
</svg>
