<svg id="icon_Affiliates" xmlns="http://www.w3.org/2000/svg" width="40" height="40" viewBox="0 0 40 40">
  <rect id="Rectangle_233" data-name="Rectangle 233" width="40" height="40" fill="none"/>
  <path id="Path_166" data-name="Path 166" d="M186.714,273.24l-1.735-19.291a.991.991,0,0,0-.976-.9h-1.071a.99.99,0,0,0-.976.9l-.56,6.359-5.95-5.25c-.606-.534-.881-.434-1.013-.386a2.124,2.124,0,0,0-.548.374l-6.4,5.441a.638.638,0,0,1-.272.1h-2.535V249.219a.952.952,0,0,0-.945-.957h-2.363a.952.952,0,0,0-.945.957v11.369h-1.763a.952.952,0,0,0-.946.956v3.52h-2.9V253.328a.952.952,0,0,0-.945-.957H151.7a.952.952,0,0,0-.945.957l0,22.906a.952.952,0,0,0,.277.676.933.933,0,0,0,.668.281h6.868v6.114a.952.952,0,0,0,.945.956h26.3a.952.952,0,0,0,.945-.956v-9.274c0-.222-.015-.57-.036-.791m-25.133-23.8h1.933v11.153h-1.933Zm-2.708,12.325h8.337a1.723,1.723,0,0,0,1.019-.375l6.4-5.441a.2.2,0,0,1,.027-.023l.025.021,6.586,5.8-.88,9.994H177.74v-5.72a.952.952,0,0,0-.946-.956H158.873Zm-.309,10.935v3.32H151.91l0-22.473h1.732v11.736a.953.953,0,0,0,.946.957H176.58v5.5H159.509a.952.952,0,0,0-.945.956m27.026,10.391H159.724V272.915h20.831a.991.991,0,0,0,.976-.9l1.567-17.79h.741l1.72,19.125c.017.185.031.5.031.685Z" transform="translate(-148.75 -246.262)" fill="#00aeef"/>
</svg>
