<svg xmlns="http://www.w3.org/2000/svg" width="24" height="24" viewBox="0 0 24 24">
  <g id="icon_Alerts" transform="translate(-1260 -57)">
    <rect id="Rectangle_238" data-name="Rectangle 238" width="24" height="24" transform="translate(1260 57)" fill="none"/>
    <g id="Group_333" data-name="Group 333" transform="translate(-48.233 -2.17)">
      <path id="Path_115" data-name="Path 115" d="M1319.163,77.923h-6.929l.432-1.136a4.684,4.684,0,0,0,.53-2.156v-5.44c0-3.447,3.167-6.268,7.038-6.268s7.037,2.82,7.037,6.268v5.44a4.7,4.7,0,0,0,.53,2.156l.433,1.136h-9.071Z" transform="translate(0 -0.158)" fill="none" stroke="#939598" stroke-width="1.7"/>
      <line id="Line_20" data-name="Line 20" y1="2.594" transform="translate(1320.232 60.17)" fill="none" stroke="#939598" stroke-linecap="round" stroke-width="1.7"/>
      <path id="Path_116" data-name="Path 116" d="M1323.011,79.636a2.729,2.729,0,0,1-5.458,0" transform="translate(-0.05 -0.194)" fill="#939598"/>
    </g>
  </g>
</svg>
