<svg xmlns="http://www.w3.org/2000/svg" width="197.343" height="164.856" viewBox="0 0 197.343 164.856">
  <g id="img_Potential_Failure" transform="translate(-1529.874 -249.907)">
    <path id="Path_204" data-name="Path 204" d="M1692.335,379.887c-21.088-28.674-60.6-66.882-129.093-86.077l6.854-24.466c75.458,21.146,119.258,63.6,142.713,95.488Z" fill="#d9d9d9"/>
    <path id="Path_205" data-name="Path 205" d="M1726.33,346.271l.887,68.492-59.764-33.469Z" fill="#d9d9d9"/>
    <path id="Path_206" data-name="Path 206" d="M1564.4,283.53a93.658,93.658,0,0,0-32.23,17.674l46.537,14.619c9.567-8.593,21.905-13.829,34.282-17.029Z" fill="#f2f2f2"/>
    <path id="Path_211" data-name="Path 211" d="M1536.228,302.48c9.562-8.6,21.9-13.831,34.271-17.033a84.523,84.523,0,0,1-18.372-33.577l-6.251-1.963c3.4,12.088,8.553,23.278,16.227,32.9a93.558,93.558,0,0,0-32.229,17.674Z" fill="#d9d9d9"/>
    <path id="Path_207" data-name="Path 207" d="M1612.984,298.794a84.627,84.627,0,0,1-18.384-33.58l-46.428-14.585c3.4,12.088,8.553,23.278,16.223,32.9Z" fill="#e8e8e8"/>
    <path id="Path_208" data-name="Path 208" d="M1581.406,316.673c9.573-8.592,21.905-13.829,34.283-17.03a84.662,84.662,0,0,1-18.384-33.58l-6.246-1.962c3.41,12.092,8.559,23.28,16.233,32.9a93.409,93.409,0,0,0-32.229,17.674Z" fill="#d9d9d9"/>
    <path id="Path_209" data-name="Path 209" d="M1566.352,311.944c9.562-8.6,21.9-13.829,34.272-17.033a84.628,84.628,0,0,1-18.373-33.577l-6.246-1.962c3.4,12.089,8.553,23.279,16.223,32.9A93.544,93.544,0,0,0,1560,309.95Z" fill="#d9d9d9"/>
    <path id="Path_210" data-name="Path 210" d="M1551.287,307.211c9.567-8.594,21.905-13.829,34.271-17.033a84.637,84.637,0,0,1-18.372-33.577l-6.246-1.962c3.4,12.089,8.553,23.279,16.223,32.9a93.642,93.642,0,0,0-32.23,17.674Z" fill="#d9d9d9"/>
    <g id="Group_451" data-name="Group 451">
      <text id="P" transform="matrix(0.889, 0.459, -0.459, 0.889, 1618.624, 307.137)" fill="#58595b" font-size="11.632" font-family="SABICTypefaceHeadline-Light, SABIC Typeface Headline" font-weight="300"><tspan x="0" y="0">P</tspan></text>
      <text id="o" transform="translate(1625.188 310.525) rotate(28.993)" fill="#58595b" font-size="11.632" font-family="SABICTypefaceHeadline-Light, SABIC Typeface Headline" font-weight="300"><tspan x="0" y="0">o</tspan></text>
      <text id="t" transform="matrix(0.863, 0.505, -0.505, 0.863, 1631.449, 314.015)" fill="#58595b" font-size="11.632" font-family="SABICTypefaceHeadline-Light, SABIC Typeface Headline" font-weight="300"><tspan x="0" y="0">t</tspan></text>
      <text id="e" transform="matrix(0.852, 0.523, -0.523, 0.852, 1634.822, 315.973)" fill="#58595b" font-size="11.632" font-family="SABICTypefaceHeadline-Light, SABIC Typeface Headline" font-weight="300"><tspan x="0" y="0">e</tspan></text>
      <text id="n" transform="translate(1640.137 319.227) rotate(33.092)" fill="#58595b" font-size="11.632" font-family="SABICTypefaceHeadline-Light, SABIC Typeface Headline" font-weight="300"><tspan x="0" y="0">n</tspan></text>
      <text id="t-2" data-name="t" transform="matrix(0.825, 0.565, -0.565, 0.825, 1645.834, 322.958)" fill="#58595b" font-size="11.632" font-family="SABICTypefaceHeadline-Light, SABIC Typeface Headline" font-weight="300"><tspan x="0" y="0">t</tspan></text>
      <text id="i" transform="translate(1649.25 325.305) rotate(35.214)" fill="#58595b" font-size="11.632" font-family="SABICTypefaceHeadline-Light, SABIC Typeface Headline" font-weight="300"><tspan x="0" y="0">i</tspan></text>
      <text id="a" transform="matrix(0.806, 0.592, -0.592, 0.806, 1651.146, 326.62)" fill="#58595b" font-size="11.632" font-family="SABICTypefaceHeadline-Light, SABIC Typeface Headline" font-weight="300"><tspan x="0" y="0">a</tspan></text>
      <text id="l" transform="translate(1656.313 330.438) rotate(37.376)" fill="#58595b" font-size="11.632" font-family="SABICTypefaceHeadline-Light, SABIC Typeface Headline" font-weight="300"><tspan x="0" y="0">l</tspan></text>
      <text id="_" data-name=" " transform="translate(1658.123 331.818) rotate(38.025)" fill="#58595b" font-size="11.632" font-family="SABICTypefaceHeadline-Light, SABIC Typeface Headline" font-weight="300"><tspan x="0" y="0"> </tspan></text>
      <text id="F" transform="translate(1660.459 333.62) rotate(39.229)" fill="#58595b" font-size="11.632" font-family="SABICTypefaceHeadline-Light, SABIC Typeface Headline" font-weight="300"><tspan x="0" y="0">F</tspan></text>
      <text id="a-2" data-name="a" transform="translate(1665.214 337.496) rotate(40.749)" fill="#58595b" font-size="11.632" font-family="SABICTypefaceHeadline-Light, SABIC Typeface Headline" font-weight="300"><tspan x="0" y="0">a</tspan></text>
      <text id="i-2" data-name="i" transform="matrix(0.745, 0.667, -0.667, 0.745, 1670.077, 341.711)" fill="#58595b" font-size="11.632" font-family="SABICTypefaceHeadline-Light, SABIC Typeface Headline" font-weight="300"><tspan x="0" y="0">i</tspan></text>
      <text id="l-2" data-name="l" transform="translate(1671.788 343.243) rotate(42.442)" fill="#58595b" font-size="11.632" font-family="SABICTypefaceHeadline-Light, SABIC Typeface Headline" font-weight="300"><tspan x="0" y="0">l</tspan></text>
      <text id="u" transform="translate(1673.5 344.778) rotate(43.607)" fill="#58595b" font-size="11.632" font-family="SABICTypefaceHeadline-Light, SABIC Typeface Headline" font-weight="300"><tspan x="0" y="0">u</tspan></text>
      <text id="r" transform="matrix(0.706, 0.708, -0.708, 0.706, 1678.416, 349.478)" fill="#58595b" font-size="11.632" font-family="SABICTypefaceHeadline-Light, SABIC Typeface Headline" font-weight="300"><tspan x="0" y="0">r</tspan></text>
      <text id="e-2" data-name="e" transform="translate(1681.534 352.586) rotate(46.409)" fill="#58595b" font-size="11.632" font-family="SABICTypefaceHeadline-Light, SABIC Typeface Headline" font-weight="300"><tspan x="0" y="0">e</tspan></text>
    </g>
  </g>
</svg>
