<svg xmlns="http://www.w3.org/2000/svg" width="40" height="40" viewBox="0 0 40 40">
  <g id="icon_Health_Index" transform="translate(-544 -282)">
    <rect id="Rectangle_234" data-name="Rectangle 234" width="40" height="40" transform="translate(544 282)" fill="none"/>
    <g id="Group_317" data-name="Group 317" transform="translate(-19.531 36.6)">
      <path id="Path_82" data-name="Path 82" d="M583.457,272.584h-.023a.914.914,0,0,1-.828-.741l-1.992-8.263L579,267.962a.887.887,0,0,1-.812.617h-9.913V266.56H577.6l2.376-6.441a.877.877,0,0,1,.87-.614.919.919,0,0,1,.792.738l1.892,7.854,1.7-5.868a.906.906,0,0,1,.814-.692.9.9,0,0,1,.843.641l1.5,4.382H598.6v2.019H587.789a.893.893,0,0,1-.822-.641l-.83-2.423-1.844,6.377a.9.9,0,0,1-.836.692" transform="translate(0 -1.583)" fill="#ffd100"/>
      <path id="Path_83" data-name="Path 83" d="M574.982,250.232a8.417,8.417,0,0,0-6.107,2.634,9.305,9.305,0,0,0,0,12.778l14.656,14.809L598.2,265.634a9.3,9.3,0,0,0-.009-12.769A8.283,8.283,0,0,0,584.5,255.11a1.093,1.093,0,0,1-.974.616,1.078,1.078,0,0,1-.973-.615,8.509,8.509,0,0,0-1.468-2.246,8.416,8.416,0,0,0-6.107-2.633m8.548,32.168a1.517,1.517,0,0,1-1.081-.452L567.587,266.93a11.169,11.169,0,0,1-.009-15.342,10.193,10.193,0,0,1,14.809,0,8.587,8.587,0,0,1,1.144,1.505,8.65,8.65,0,0,1,1.145-1.505,10.192,10.192,0,0,1,14.808,0,11.164,11.164,0,0,1,0,15.333l-14.872,15.028a1.518,1.518,0,0,1-1.081.452" transform="translate(0)" fill="#009ee2"/>
    </g>
  </g>
</svg>
