<svg xmlns="http://www.w3.org/2000/svg" width="40" height="40" viewBox="0 0 40 40">
  <g id="icon_Under_Investigate" transform="translate(-1414 -248)">
    <rect id="Rectangle_239" data-name="Rectangle 239" width="40" height="40" transform="translate(1414 248)" fill="none"/>
    <g id="Group_337" data-name="Group 337" transform="translate(8.078 1.916)">
      <path id="Path_112" data-name="Path 112" d="M1420.505,251.579a9.092,9.092,0,1,0,9.093,9.093,9.1,9.1,0,0,0-9.093-9.093m0,19.637a10.545,10.545,0,1,1,10.544-10.544,10.556,10.556,0,0,1-10.544,10.544" transform="translate(-0.158 -0.158)" fill="#ffd100"/>
      <path id="Path_113" data-name="Path 113" d="M1444.629,280.936l-10.886-10.886a1.084,1.084,0,0,0-.406-.249.973.973,0,0,0-1.013.249l-.7.705-1.3-1.3a13.428,13.428,0,1,0-1.029,1.029l1.3,1.3-.7.7a1.071,1.071,0,0,0-.249.406.972.972,0,0,0,.249,1.012l10.886,10.886a1.062,1.062,0,0,0,.406.249.975.975,0,0,0,1.012-.249l2.43-2.43a1.066,1.066,0,0,0,.249-.407.974.974,0,0,0-.248-1.012m-24.291-8.474A11.962,11.962,0,1,1,1432.3,260.5a11.975,11.975,0,0,1-11.961,11.962m21.151,10.973-10.246-10.246,1.791-1.791,10.245,10.246Z" transform="translate(0 0)" fill="#009fdf"/>
    </g>
  </g>
</svg>
