<svg id="icon_Affiliates" xmlns="http://www.w3.org/2000/svg" width="40" height="40" viewBox="0 0 40 40">
  <g id="Group_312" data-name="Group 312">
    <rect id="Rectangle_233" data-name="Rectangle 233" width="40" height="40" fill="none"/>
    <g id="Group_311" data-name="Group 311" transform="translate(0 7)">
      <path id="Path_96" data-name="Path 96" d="M396.492,256.543l-1.876.011a1.114,1.114,0,0,0-1.113,1.1v.91h-1.369v-.925a1.11,1.11,0,0,0-1.116-1.1h-4.613a.59.59,0,0,1-.252-.1l-2.815-2.791a1.873,1.873,0,0,0-1.221-.5l-3.676,0v-2.517h-1.369v2.517l-2.054,0v-2.52H373.65v2.521l-6.416.007a1.455,1.455,0,0,0-1.236.755l-1.659,3.275a.181.181,0,0,1-.04.025h-1.856a1.11,1.11,0,0,0-1.116,1.1v3.629h-2.612V263.3h2.612v2.027h-2.612v1.352h2.612v3.629a1.11,1.11,0,0,0,1.116,1.1h1.874a.584.584,0,0,1,.253.1l3.5,3.452a1.879,1.879,0,0,0,1.22.5H387.6a1.882,1.882,0,0,0,1.221-.5l2.813-2.777a1.831,1.831,0,0,0,.506-1.2v-.926H393.5v.925a1.11,1.11,0,0,0,1.116,1.1H396.5a1.11,1.11,0,0,0,1.116-1.1V257.642a1.109,1.109,0,0,0-1.12-1.1m-.249,14.189h-1.369v-.926a1.11,1.11,0,0,0-1.116-1.1h-1.876a1.11,1.11,0,0,0-1.116,1.1v1.175a.575.575,0,0,1-.1.25l-2.812,2.776a.591.591,0,0,1-.253.1H369.289a.59.59,0,0,1-.252-.1l-3.5-3.452a1.875,1.875,0,0,0-1.22-.5H362.7V258.568h1.623a1.452,1.452,0,0,0,1.236-.754l1.659-3.276a.167.167,0,0,1,.041-.025l14.862-.015a.6.6,0,0,1,.252.1l2.815,2.791a1.877,1.877,0,0,0,1.22.5h4.361v.926a1.11,1.11,0,0,0,1.116,1.1h1.876a1.11,1.11,0,0,0,1.116-1.1V257.9l1.369-.008Z" transform="translate(-357.612 -249.462)" fill="#00aeef"/>
      <rect id="Rectangle_196" data-name="Rectangle 196" width="19.538" height="1.861" rx="0.586" transform="translate(8.848)" fill="#ffd100"/>
      <rect id="Rectangle_197" data-name="Rectangle 197" width="1.861" height="19.538" rx="0.586" transform="translate(0 4.108)" fill="#ffd100"/>
    </g>
  </g>
</svg>
