<svg xmlns="http://www.w3.org/2000/svg" width="103" height="52" viewBox="0 0 103 52">
  <g id="image_Sabic_Logo" transform="translate(-1687.085 -47.904)">
    <path id="Path_39" data-name="Path 39" d="M1741.045,50.077c0-1.623.4-1.812,1.857-1.812s1.859.189,1.859,1.812V66.508c0,.778.253,1.315,1.247,1.315h12.1c1.027,0,1.242-.537,1.242-1.315V60.75c0-1.627.4-1.816,1.862-1.816s1.866.189,1.866,1.816v5.758c0,.778.245,1.315,1.234,1.315h8.224c1.02,0,1.24-.537,1.24-1.315V60.75c0-1.627.4-1.816,1.868-1.816,1.448,0,1.851.189,1.851,1.816v5.758c0,.778.252,1.315,1.243,1.315h6.206c1.026,0,1.241-.537,1.241-1.315V60.75c0-1.627.4-1.816,1.864-1.816s1.863.189,1.863,1.816v5.758c0,3.5-.872,4.381-4.345,4.381h-40.183c-3.474,0-4.339-.877-4.339-4.381Zm-25.631-1.249c.9,1.155.9,1.469-.4,2.471l-9.245,7.04c-.28.219-.373.595.245.595h13.154c3.169,0,3.729.721,3.729,3.756v3.818c0,.778.241,1.315,1.239,1.315h8.221c.993,0,1.241-.537,1.241-1.315V60.75c0-1.627.4-1.816,1.861-1.816s1.861.189,1.861,1.816v5.758c0,3.5-.868,4.381-4.347,4.381h-45.886c.247-2.253,2.23-3.066,4.87-3.066h26.1c.808,0,1.115-.218,1.115-1V63c0-.686-.182-1-1.115-1h-14.49c-2.422,0-3.135-1.313-3.135-2.437a3.576,3.576,0,0,1,1.742-2.663l10.828-8.293c1.3-1,1.517-.941,2.419.22m14.277,28.631-.905.939c-1.055,1.032-2.018,1.158-2.852.315-.87-.877-.745-1.847.274-2.88l.936-.938c1.057-1.068,2.015-1.157,2.85-.31s.747,1.811-.3,2.874" fill="#0047bb"/>
    <path id="Path_40" data-name="Path 40" d="M1730.662,100.552c2.286,0,2.816-.565,2.816-2.82v-1.3c0-2.253-.468-2.821-2.816-2.821H1723.1c-.1,0-.169-.033-.169-.129,0-.3,3.219-2.289,9.323-2.424.93-.032,1.161-.43,1.089-1.326-.031-.763-.292-1.227-1.42-1.227-8.1,0-12.706,3.948-12.706,6.068,0,.93.54,1.529,2.639,1.529h8.008c.6,0,.663.13.663.561V97.5c0,.462-.13.563-.663.563h-10.745c-1.891,0-3.455.6-3.649,2.49Zm40.263-15.164-.628.633c-.862.867-1.625.93-2.287.267-.7-.7-.6-1.46.233-2.288l.627-.665c.864-.828,1.625-.929,2.289-.232.7.66.6,1.427-.234,2.285m-34.1,15.164c-1.09,0-1.954-.336-1.954-1.794,0-6.168,6.762-10.248,9.352-10.248.9,0,1.194.6,1.194,1.394v3.879c0,1.1-.068,1.425-1.362,1.425-1.257,0-1.36-.328-1.36-1.425V91.791c0-.063,0-.1-.065-.1-1.1,0-4.877,3.251-4.877,5.9,0,.3.031.463.727.463h7.767c.6,0,.729-.265.729-.763V86.786c0-1.263.364-1.461,1.492-1.461s1.5.2,1.5,1.461V97.3c0,2.554-.7,3.253-3.286,3.253Zm18.476,0c-2.59,0-3.283-.7-3.283-3.253V80.117c0-1.259.365-1.427,1.49-1.427s1.494.168,1.494,1.427V97.3c0,.5.134.763.729.763h7.666c.694,0,.725-.166.725-.463,0-1.263-1.756-4.813-7.13-6.469-.927-.263-1.027-.794-.731-1.657.366-1,.965-.963,1.728-.765,6.34,1.857,9.017,6,9.017,10.05,0,1.458-.858,1.794-1.953,1.794Zm13.727-1.363V91.427c0-.164-.06-.2-.293-.2h-.563c-1.128,0-1.459-.3-1.459-1.3s.331-1.294,1.459-1.294h2.351c.8,0,1.3.333,1.3,1.226v9.322c0,1.259-.367,1.461-1.393,1.461-1.063,0-1.4-.2-1.4-1.461m4.549-.431c0-4.445,4.013-10.248,11.84-10.248.9,0,1.2.6,1.2,1.394v3.879c0,1.1-.1,1.425-1.362,1.425s-1.359-.328-1.359-1.425V91.76c0-.365-.063-.429-.2-.429-4.182,0-7.261,4.343-7.261,6.268,0,.3.026.463.724.463h10.118c1.895,0,3.45.6,3.68,2.49h-15.422c-1.128,0-1.957-.336-1.957-1.794" transform="translate(-0.874 -0.746)" fill="#ffa300"/>
  </g>
</svg>
