<svg xmlns="http://www.w3.org/2000/svg" width="40" height="40" viewBox="0 0 40 40">
  <g id="icon_PM_Compliance" transform="translate(-146 -246.973)">
    <g id="Group_730" data-name="Group 730">
      <rect id="Rectangle_235" data-name="Rectangle 235" width="40" height="40" transform="translate(146 246.973)" fill="none"/>
      <g id="Group_729" data-name="Group 729" transform="translate(10445.467 8535.64)">
        <path id="Path_482" data-name="Path 482" d="M15.616,14.313a5.078,5.078,0,0,1-.557.227,2.116,2.116,0,0,1-1.41-.091A1.974,1.974,0,0,1,13,14.021a2.087,2.087,0,0,1-.6-1.156,2.154,2.154,0,0,1,.078-1.031,2.036,2.036,0,0,1,.48-.789l-.47-.466c-.131.091-.277.2-.433.3a1.817,1.817,0,0,1-.7.244,2.068,2.068,0,0,1-.377.036,2.162,2.162,0,0,1-1.366-.512,2.08,2.08,0,0,1-.676-1.1A2.243,2.243,0,0,1,8.9,8.743a2.115,2.115,0,0,1,.442-1.037.5.5,0,0,1,.053-.053q3.1-3.073,6.193-6.143a1.866,1.866,0,0,1,.94-.473c.051-.011.1-.016.158-.031C16.878,1,17.066,1,17.264,1c.1.022.2.04.29.065a2.092,2.092,0,0,1,1.528,1.692,2.051,2.051,0,0,1-.213,1.321,5.862,5.862,0,0,1-.335.5L19,5.043a2.09,2.09,0,0,1,1.633-.583,2.052,2.052,0,0,1,1.432.693A2.118,2.118,0,0,1,22,8.043l2.97,2.948a2.118,2.118,0,0,1,1.589-.594,2.067,2.067,0,0,1,1.481.691,2.111,2.111,0,0,1-.054,2.89l.48.474c.081-.064.172-.142.269-.21a2.069,2.069,0,0,1,.952-.358,2.118,2.118,0,0,1,1.482.356,2.059,2.059,0,0,1,.636.693,2.081,2.081,0,0,1,.267,1.237,1.961,1.961,0,0,1-.426,1.081,4.073,4.073,0,0,1-.322.358q-2.915,2.9-5.832,5.79A2.083,2.083,0,0,1,24.3,24a2.1,2.1,0,0,1-1.627-.413,2.111,2.111,0,0,1-.395-2.956,1.226,1.226,0,0,1,.115-.132c.041-.041.048-.076,0-.119l-.429-.429a2.153,2.153,0,0,1-2.3.45,2.036,2.036,0,0,1-1.217-1.3,2.114,2.114,0,0,1,.2-1.762l-.052-.036a.448.448,0,0,1-.06.106Q11.439,24.468,4.328,31.524a1.108,1.108,0,0,1-1,.31,1.178,1.178,0,0,1-.667-.342c-.418-.412-.834-.827-1.251-1.241a1.245,1.245,0,0,1-.378-.6c0-.008-.013-.015-.026-.024C1,29.447,1,29.266,1,29.077c.012-.018.031-.026.033-.038a1.185,1.185,0,0,1,.365-.583Q8.479,21.431,15.556,14.4l.074-.075a.087.087,0,0,0,.014-.029l-.029.014m-5.83,9.778,8.166-8.107-.958-.952L2.565,29.356l.958.951.008-.007,6.255-6.209M20.941,15l3-2.973L20.977,9.086l-3.955,3.926,2.96,2.938.96-.954m5.352,5.593q1.975-1.961,3.95-3.922a3.547,3.547,0,0,0,.267-.285.627.627,0,0,0,.127-.535.668.668,0,0,0-.47-.526.611.611,0,0,0-.638.121c-.385.356-.756.726-1.127,1.1q-1.988,1.979-3.973,3.961c-.183.182-.375.356-.558.538-.148.147-.292.3-.434.449a.6.6,0,0,0-.161.389.671.671,0,0,0,.3.606.647.647,0,0,0,.533.11.818.818,0,0,0,.4-.229c.593-.586,1.184-1.175,1.786-1.771M19.709,8.3c.41-.407.814-.821,1.233-1.219a.718.718,0,0,0,.081-.94.688.688,0,0,0-1.008-.085q-3.023,2.993-6.037,6a.646.646,0,0,0,.029.945A.689.689,0,0,0,15,12.979q2.349-2.335,4.711-4.677m-7.675.691,3.191-3.168,2.234-2.218A.69.69,0,0,0,16.52,2.6c-.384.387-.772.768-1.159,1.152q-2.41,2.392-4.821,4.783A.691.691,0,0,0,11,9.735a.678.678,0,0,0,.495-.212l.535-.531m12.99,5.91q.957-.951,1.916-1.9a.653.653,0,0,0,.171-.733.683.683,0,0,0-.66-.454.692.692,0,0,0-.493.218q-.45.444-.9.891l-5.054,5.016A.684.684,0,0,0,20.064,19a.7.7,0,0,0,.88-.051q2.033-2.022,4.079-4.05m-9.4-7.46-2.115,2.1.47.468,3.967-3.938L17.479,5.6,15.627,7.443m8.588,10.28L23,18.933l.468.465,3.954-3.925-.466-.462s0,0-.008,0l-2.729,2.708m-5.524-.452-.008.026A.023.023,0,0,0,18.69,17.271Z" transform="translate(-10298.467 -8287.667)" fill="#009fdf"/>
        <path id="Path_483" data-name="Path 483" d="M939.173,1852.3c-.03-.017-.048-.037-.071-.051a.4.4,0,0,1-.221-.376c0-.195.008-.39,0-.585a.444.444,0,0,1,.4-.405q8.8,0,17.59,0a.39.39,0,0,1,.346.208.579.579,0,0,0,.05.072c.006.285.006.569,0,.861a.692.692,0,0,1-.295.273Z" transform="translate(-11218.74 -10102.965)" fill="#ffcd00"/>
        <path id="Path_484" data-name="Path 484" d="M1052.988,1700.81q5.847,0,11.675,0a.461.461,0,0,1,.438.446c-.006.179,0,.358,0,.537a.459.459,0,0,1-.435.439q-6.648-.007-13.3,0a.461.461,0,0,1-.438-.446c.006-.179,0-.359,0-.537a.455.455,0,0,1,.435-.439C1051.9,1700.818,1052.441,1700.81,1052.988,1700.81Z" transform="translate(-11328.677 -9955.721)" fill="#ffcd00"/>
      </g>
    </g>
  </g>
</svg>
