<svg xmlns="http://www.w3.org/2000/svg" width="40" height="40" viewBox="0 0 40 40">
  <g id="icon_PM_Compliance" transform="translate(-146.036 -246.973)">
    <rect id="Rectangle_235" data-name="Rectangle 235" width="40" height="40" transform="translate(146.036 246.973)" fill="none"/>
    <g id="Group_323" data-name="Group 323" transform="translate(-632.835 1.246)">
      <path id="Path_91" data-name="Path 91" d="M792.115,264.578a.226.226,0,0,0-.319,0l-4.055,4.055-1.339-1.339a.226.226,0,0,0-.319,0l-.693.694a.226.226,0,0,0,0,.319l2.032,2.032a.45.45,0,0,0,.638,0l4.749-4.748a.226.226,0,0,0,0-.319Z" transform="translate(0 -1.441)" fill="#ffd100"/>
      <path id="Path_92" data-name="Path 92" d="M787.422,256.016a.451.451,0,0,0,.638,0l4.749-4.749a.226.226,0,0,0,0-.319l-.694-.693a.224.224,0,0,0-.319,0l-4.055,4.054L786.4,252.97a.226.226,0,0,0-.319,0l-.694.694a.226.226,0,0,0,0,.319Z" fill="#ffd100"/>
      <path id="Path_93" data-name="Path 93" d="M784.039,273.227h9.841a1.169,1.169,0,0,0,1.167-1.167v-9.841a1.169,1.169,0,0,0-1.167-1.168h-9.841a1.169,1.169,0,0,0-1.168,1.168v9.841a1.169,1.169,0,0,0,1.168,1.167m.265-10.743h9.311V271.8H784.3Z" transform="translate(0 -1.412)" fill="#00aeef"/>
      <path id="Path_94" data-name="Path 94" d="M784.039,258.9h9.841a1.169,1.169,0,0,0,1.167-1.168V247.9a1.169,1.169,0,0,0-1.167-1.168h-9.841a1.169,1.169,0,0,0-1.168,1.168v9.84a1.169,1.169,0,0,0,1.168,1.168m.265-10.743h9.311v9.311H784.3Z" fill="#00aeef"/>
      <path id="Path_95" data-name="Path 95" d="M814.871,258.324a2.614,2.614,0,0,0-4.517-1.848l-17.191,17.185a1.071,1.071,0,0,0-.254-.032h-8.973a1.066,1.066,0,0,0-1.064,1.065v8.97a1.066,1.066,0,0,0,1.064,1.064h8.973a1.066,1.066,0,0,0,1.065-1.064v-3.427l20.074-20.066a2.586,2.586,0,0,0,.823-1.847M790.623,278.3l1.591,1.59-2.517.906Zm2.644.8-1.846-1.847,16.624-16.618,1.847,1.847Zm-9.091,4.326v-8.486h7.711l-2.047,2.046a1.333,1.333,0,0,0-.353.622l-1.039,2.8-.007.02a1.267,1.267,0,0,0,.175,1.155,1.281,1.281,0,0,0,1.478.459l2.572-.926v2.308Zm28.948-24.175-2.309,2.308-1.847-1.847,2.308-2.307a1.338,1.338,0,0,1,.927-.441,1.32,1.32,0,0,1,.92.439,1.337,1.337,0,0,1,.441.926,1.322,1.322,0,0,1-.44.922" transform="translate(0)" fill="#00aeef"/>
    </g>
  </g>
</svg>
